<?xml version="1.0" encoding="UTF-8" standalone="no"?>
<!-- Created with Inkscape (http://www.inkscape.org/) -->

<svg
   xmlns:dc="http://purl.org/dc/elements/1.1/"
   xmlns:cc="http://creativecommons.org/ns#"
   xmlns:rdf="http://www.w3.org/1999/02/22-rdf-syntax-ns#"
   xmlns:svg="http://www.w3.org/2000/svg"
   xmlns="http://www.w3.org/2000/svg"
   xmlns:sodipodi="http://sodipodi.sourceforge.net/DTD/sodipodi-0.dtd"
   xmlns:inkscape="http://www.inkscape.org/namespaces/inkscape"
   width="32"
   height="24"
   id="svg2"
   version="1.1"
   inkscape:version="0.48.3.1 r9886"
   sodipodi:docname="ink_ext_XXXXXX.svgP1E9UW"
   inkscape:export-filename="/var/www/dotclear/themes/custom/bubble.png"
   inkscape:export-xdpi="90"
   inkscape:export-ydpi="90">
  <sodipodi:namedview
     id="base"
     pagecolor="#ffffff"
     bordercolor="#666666"
     borderopacity="1.0"
     inkscape:pageopacity="0.0"
     inkscape:pageshadow="2"
     inkscape:zoom="16.041667"
     inkscape:cx="22.922094"
     inkscape:cy="10.428839"
     inkscape:document-units="px"
     inkscape:current-layer="layer1"
     showgrid="true"
     inkscape:window-width="1280"
     inkscape:window-height="975"
     inkscape:window-x="0"
     inkscape:window-y="25"
     inkscape:window-maximized="1">
    <inkscape:grid
       snapvisiblegridlinesonly="true"
       enabled="true"
       visible="true"
       empspacing="5"
       id="grid2985"
       type="xygrid" />
  </sodipodi:namedview>
  <defs
     id="defs4" />
  <metadata
     id="metadata7">
    <rdf:RDF>
      <cc:Work
         rdf:about="">
        <dc:format>image/svg+xml</dc:format>
        <dc:type
           rdf:resource="http://purl.org/dc/dcmitype/StillImage" />
        <dc:title></dc:title>
      </cc:Work>
    </rdf:RDF>
  </metadata>
  <g
     transform="translate(0,-1028.3622)"
     id="layer1"
     inkscape:groupmode="layer"
     inkscape:label="Calque 1">
    <path
       id="path2987"
       d="m 32,1038.3622 c 0,2.7614 -1.790861,5.2614 -4.686292,7.0711 -2.89543,1.8096 -6.89543,2.9289 -11.313708,2.9289 -4.418278,0 -8.418278,-1.1193 -11.3137085,-2.9289 C 1.790861,1043.6236 0,1041.1236 0,1038.3622 c 0,-2.7614 1.790861,-5.2614 4.6862915,-7.0711 2.8954305,-1.8096 6.8954305,-2.9289 11.3137085,-2.9289 4.418278,0 8.418278,1.1193 11.313708,2.9289 2.895431,1.8097 4.686292,4.3097 4.686292,7.0711 0,0 0,0 0,0"
       style="fill:#000000;stroke:none"
       inkscape:connector-curvature="0" />
    <path
       style="fill:#000000;stroke:none"
       d="m 12,1047.3622 c 0,2 -2,5 -2,5 0,0 2.418861,-0.4189 4,-2 2,-2 3,-4 3,-4 l -5,1 z"
       id="path3002"
       inkscape:connector-curvature="0"
       sodipodi:nodetypes="ccsccc" />
  </g>
</svg>
